<?xml version="1.0" encoding="UTF-8"?>
<svg xmlns="http://www.w3.org/2000/svg" viewBox="459 725 681 142" role="img" aria-label="Haley Mae">
  <path fill="#010101" d="M548.91,730.71c-9.12,0-12.22,2.49-12.22,18.44v101.71c0,15.95,3.11,18.44,12.22,18.44v.83h-41.02v-.83c9.32,0,12.22-2.49,12.22-18.44v-58.83h-32.32v58.83c0,15.95,3.11,18.44,12.43,18.44v.83h-41.22v-.83c9.32,0,12.43-2.49,12.43-18.44v-101.71c0-15.95-3.11-18.44-12.43-18.44v-.83h41.22v.83c-9.32,0-12.43,2.49-12.43,18.44v39.98h32.32v-39.98c0-15.95-2.9-18.44-12.22-18.44v-.83h41.02v.83Z"/>
  <path fill="#010101" d="M621.62,850.86c3.73,15.95,5.18,18.44,14.29,18.44v.83h-41.43v-.83c7.04,0,11.39-1.45,11.39-9.32,0-2.49-.42-5.38-1.25-9.11l-6.63-31.07h-25.89l-6.01,26.31c-1.45,6.42-2.28,11.19-2.28,14.71,0,7.25,3.52,8.49,10.36,8.49v.83h-27.97v-.83c10.15,0,11.6-2.49,16.57-23.2l27.97-118.28h2.9l27.97,123.05ZM597.38,816.88l-12.22-55.31-12.43,55.31h24.65Z"/>
  <path fill="#010101" d="M680.88,730.71c-14.09,0-18.65,2.49-18.65,18.44v118.08h2.69c23.62,0,32.52-10.57,32.52-51.17h.83v54.07h-64.84v-.83c9.32,0,12.22-2.49,12.22-18.44v-101.71c0-15.95-2.9-18.44-12.22-18.44v-.83h47.44v.83Z"/>
  <path fill="#010101" d="M768.71,760.95h-.83c-3.52-22.99-16.16-28.17-32.73-28.17h-2.9v56.35h26.52v2.9h-26.52v75.2h6.42c23.61,0,30.45-8.49,30.45-46.61h.83v49.51h-66.5v-.83c9.32,0,12.22-2.49,12.22-18.44v-101.71c0-15.95-2.9-18.44-12.22-18.44v-.83h60.49l4.76,31.07Z"/>
  <path fill="#010101" d="M856.55,730.71c-10.15,0-12.22,2.28-19.68,23.2l-17.4,49.3v47.65c0,15.95,2.9,18.44,12.22,18.44v.83h-41.02v-.83c9.11,0,12.22-2.49,12.22-18.44v-48.68l-17.61-53.03c-5.38-15.95-7.04-18.44-16.36-18.44v-.83h41.64v.83c-6.42,0-10.15,1.04-10.15,7.04,0,2.69.83,6.42,2.28,11.39l15.54,50.54,15.12-45.78c2.69-8.49,4.14-13.88,4.14-17.19,0-5.18-3.11-6.01-9.12-6.01v-.83h28.18v.83Z"/>
  <path fill="#010101" d="M990.18,730.71c-9.32,0-12.22,2.49-12.22,18.44v101.71c0,15.95,2.9,18.44,12.22,18.44v.83h-41.02v-.83c9.12,0,12.22-2.49,12.22-18.44v-100.47l-27.34,121.81h-2.69l-26.1-120.98v94.88c.21,20.72,2.28,23.2,12.43,23.2v.83h-27.97v-.83c10.15,0,12.43-2.49,12.43-23.2v-92.18c0-20.72-2.28-23.2-12.43-23.2v-.83h28.17l21.75,106.48,22.79-106.48h27.76v.83Z"/>
  <path fill="#010101" d="M1062.69,850.86c3.73,15.95,5.18,18.44,14.29,18.44v.83h-41.43v-.83c7.04,0,11.39-1.45,11.39-9.32,0-2.49-.42-5.38-1.25-9.11l-6.63-31.07h-25.89l-6.01,26.31c-1.45,6.42-2.28,11.19-2.28,14.71,0,7.25,3.52,8.49,10.36,8.49v.83h-27.97v-.83c10.15,0,11.6-2.49,16.57-23.2l27.97-118.28h2.9l27.97,123.05ZM1038.45,816.88l-12.22-55.31-12.43,55.31h24.65Z"/>
  <path fill="#010101" d="M1139.76,760.95h-.83c-3.52-22.99-16.16-28.17-32.73-28.17h-2.9v56.35h26.52v2.9h-26.52v75.2h6.42c23.61,0,30.45-8.49,30.45-46.61h.83v49.51h-66.5v-.83c9.32,0,12.22-2.49,12.22-18.44v-101.71c0-15.95-2.9-18.44-12.22-18.44v-.83h60.49l4.76,31.07Z"/>
</svg>
